<?xml version="1.0" encoding="UTF-8" standalone="no"?>
<svg
   xmlns:dc="http://purl.org/dc/elements/1.1/"
   xmlns:cc="http://creativecommons.org/ns#"
   xmlns:rdf="http://www.w3.org/1999/02/22-rdf-syntax-ns#"
   xmlns:svg="http://www.w3.org/2000/svg"
   xmlns="http://www.w3.org/2000/svg"
   xmlns:sodipodi="http://sodipodi.sourceforge.net/DTD/sodipodi-0.dtd"
   xmlns:inkscape="http://www.inkscape.org/namespaces/inkscape"
   width="256"
   height="256"
   viewBox="0 0 67.73333 67.733335"
   version="1.1"
   id="svg8"
   inkscape:version="1.0.1 (3bc2e813f5, 2020-09-07)"
   sodipodi:docname="old_icon.svg"
   inkscape:export-filename="C:\Users\gesch\Documents\BotBuilder\assets\icon\icon.png"
   inkscape:export-xdpi="96"
   inkscape:export-ydpi="96">
  <defs
     id="defs2">
    <inkscape:path-effect
       effect="fillet_chamfer"
       id="path-effect858"
       is_visible="true"
       lpeversion="1"
       satellites_param="F,0,0,1,0,1.3229167,0,1 @ F,0,0,1,0,1.3229167,0,1 @ F,0,0,1,0,1.3229167,0,1 @ F,0,0,1,0,1.3229167,0,1"
       unit="px"
       method="auto"
       mode="F"
       radius="5"
       chamfer_steps="1"
       flexible="false"
       use_knot_distance="true"
       apply_no_radius="true"
       apply_with_radius="true"
       only_selected="false"
       hide_knots="false" />
    <inkscape:path-effect
       effect="fillet_chamfer"
       id="path-effect837"
       is_visible="true"
       lpeversion="1"
       satellites_param="F,0,0,1,0,5.2916667,0,1 @ F,0,0,1,0,5.2916667,0,1 @ F,0,0,1,0,5.2916667,0,1 @ F,0,0,1,0,5.2916667,0,1"
       unit="px"
       method="auto"
       mode="F"
       radius="20"
       chamfer_steps="1"
       flexible="false"
       use_knot_distance="true"
       apply_no_radius="true"
       apply_with_radius="true"
       only_selected="false"
       hide_knots="false" />
    <clipPath
       id="clip0">
      <rect
         width="71"
         height="55"
         fill="#ffffff"
         id="rect6"
         x="0"
         y="0" />
    </clipPath>
  </defs>
  <sodipodi:namedview
     id="base"
     pagecolor="#ffffff"
     bordercolor="#666666"
     borderopacity="1.0"
     inkscape:pageopacity="0.0"
     inkscape:pageshadow="2"
     inkscape:zoom="2.8"
     inkscape:cx="81.871445"
     inkscape:cy="128.75129"
     inkscape:document-units="mm"
     inkscape:current-layer="layer1"
     inkscape:document-rotation="0"
     showgrid="false"
     units="px"
     inkscape:window-width="1920"
     inkscape:window-height="1017"
     inkscape:window-x="1912"
     inkscape:window-y="-8"
     inkscape:window-maximized="1" />
  <metadata
     id="metadata5">
    <rdf:RDF>
      <cc:Work
         rdf:about="">
        <dc:format>image/svg+xml</dc:format>
        <dc:type
           rdf:resource="http://purl.org/dc/dcmitype/StillImage" />
        <dc:title />
      </cc:Work>
    </rdf:RDF>
  </metadata>
  <g
     inkscape:label="Ebene 1"
     inkscape:groupmode="layer"
     id="layer1">
    <path
       fill="currentColor"
       d="m 65.363505,41.980984 -5.799827,-3.349198 c 0.585429,-3.158592 0.585429,-6.398872 0,-9.557465 l 5.799827,-3.349195 c 0.667119,-0.38121 0.966638,-1.170859 0.748807,-1.906048 -1.511226,-4.846805 -4.084387,-9.230713 -7.4472,-12.879432 -0.517358,-0.5582 -1.361465,-0.694346 -2.014967,-0.313137 l -5.799827,3.349197 c -2.437017,-2.096652 -5.24163,-3.71679 -8.277689,-4.7787314 V 2.5121949 c 0,-0.7624189 -0.530972,-1.4295346 -1.279776,-1.59291115 -4.996565,-1.1163984 -10.115663,-1.06193955 -14.867167,0 C 25.676883,1.0826603 25.145913,1.749776 25.145913,2.5121949 v 6.6983937 c -3.022446,1.0755554 -5.827058,2.6956954 -8.27769,4.7787334 l -5.786214,-3.349197 c -0.667116,-0.381209 -1.4976084,-0.258679 -2.0149644,0.313136 -3.3628107,3.635104 -5.9359747,8.019012 -7.4471969,12.879432 -0.2314485,0.735189 0.081682,1.524838 0.7488034,1.906047 l 5.7998293,3.349197 c -0.5854292,3.158591 -0.5854292,6.398871 0,9.557463 l -5.7998293,3.349198 c -0.6671157,0.381209 -0.9666375,1.170857 -0.7488034,1.906046 1.5112222,4.8468 4.0843862,9.230715 7.4471969,12.879434 0.517356,0.558198 1.3614634,0.694342 2.0149644,0.313129 l 5.79983,-3.349188 c 2.437016,2.096647 5.241628,3.716792 8.277688,4.778725 v 6.6984 c 0,0.762414 0.530971,1.429525 1.279776,1.5929 4.996566,1.116408 10.115662,1.061946 14.867166,0 0.748804,-0.163375 1.279774,-0.830486 1.279774,-1.5929 v -6.6984 c 3.022445,-1.075555 5.827058,-2.695687 8.27769,-4.778725 l 5.799827,3.349188 c 0.667119,0.381213 1.49761,0.258678 2.014967,-0.313129 3.362808,-3.635097 5.935974,-8.019012 7.447194,-12.879434 0.204222,-0.748804 -0.09529,-1.538452 -0.762416,-1.91966 z"
       id="path2"
       style="stroke-width:0.136147;fill:#0597ff;fill-opacity:1"
       sodipodi:nodetypes="cccccccccsccsccccccccccccccsccscccccc" />
    <g
       clip-path="url(#clip0)"
       id="g4"
       transform="matrix(0.50600912,0,0,0.50600912,15.903343,19.966315)">
      <path
         d="M 60.1045,4.8978 C 55.5792,2.8214 50.7265,1.2916 45.6527,0.41542 45.5603,0.39851 45.468,0.440769 45.4204,0.525289 44.7963,1.6353 44.105,3.0834 43.6209,4.2216 38.1637,3.4046 32.7345,3.4046 27.3892,4.2216 26.905,3.0581 26.1886,1.6353 25.5617,0.525289 25.5141,0.443589 25.4218,0.40133 25.3294,0.41542 20.2584,1.2888 15.4057,2.8186 10.8776,4.8978 10.8384,4.9147 10.8048,4.9429 10.7825,4.9795 1.57795,18.7309 -0.943561,32.1443 0.293408,45.3914 c 0.005597,0.0648 0.041978,0.1268 0.092353,0.1662 6.072899,4.4598 11.955539,7.1673 17.728939,8.9619 0.0924,0.0282 0.1903,-0.0056 0.2491,-0.0817 1.3657,-1.865 2.5831,-3.8315 3.6269,-5.8995 0.0616,-0.1211 0.0028,-0.2648 -0.1231,-0.3127 -1.931,-0.7325 -3.7697,-1.6256 -5.5384,-2.6398 -0.1399,-0.0817 -0.1511,-0.2818 -0.0224,-0.3776 0.3722,-0.2789 0.7445,-0.5691 1.0999,-0.8621 0.0643,-0.0535 0.1539,-0.0648 0.2295,-0.031 11.6196,5.3051 24.1992,5.3051 35.6817,0 0.0756,-0.0366 0.1652,-0.0253 0.2323,0.0282 0.3555,0.293 0.7277,0.586 1.1027,0.8649 0.1287,0.0958 0.1203,0.2959 -0.0196,0.3776 -1.7687,1.0339 -3.6074,1.9073 -5.5412,2.637 -0.1259,0.0479 -0.1819,0.1944 -0.1203,0.3155 1.0662,2.0651 2.2836,4.0316 3.6241,5.8967 0.056,0.0789 0.1567,0.1127 0.2491,0.0845 5.8014,-1.7946 11.684,-4.5021 17.7569,-8.9619 0.0532,-0.0394 0.0868,-0.0986 0.0924,-0.1634 C 72.1747,30.0791 68.2147,16.7757 60.1968,4.9823 60.1772,4.9429 60.1437,4.9147 60.1045,4.8978 Z M 23.7259,37.3253 c -3.4983,0 -6.3808,-3.2117 -6.3808,-7.156 0,-3.9443 2.8266,-7.156 6.3808,-7.156 3.5821,0 6.4367,3.2399 6.3807,7.156 0,3.9443 -2.8266,7.156 -6.3807,7.156 z m 23.5919,0 c -3.4982,0 -6.3807,-3.2117 -6.3807,-7.156 0,-3.9443 2.8265,-7.156 6.3807,-7.156 3.5822,0 6.4367,3.2399 6.3808,7.156 0,3.9443 -2.7986,7.156 -6.3808,7.156 z"
         fill="#ffffff"
         id="path2-6" />
    </g>
  </g>
</svg>
